<svg xmlns="http://www.w3.org/2000/svg" version="1.1" xmlns:xlink="http://www.w3.org/1999/xlink" xmlns:svgjs="http://svgjs.com/svgjs" width="512" height="512" x="0" y="0" viewBox="0 0 21 21" style="enable-background:new 0 0 512 512" xml:space="preserve" class=""><g><g xmlns="http://www.w3.org/2000/svg" id="layer18" transform="translate(78.5 -121.5)"><g id="icon-cute"><path id="path117469" d="m-58 132a10 10 0 0 1 -10 10 10 10 0 0 1 -10-10 10 10 0 0 1 10-10 10 10 0 0 1 10 10z" fill="#ffd764" stroke-linecap="round" stroke-linejoin="round" data-original="#ffd764"></path><path id="path117492" d="m-64.855469 122.50977a10.045723 10.045723 0 0 1 5.546875 8.96289 10.045723 10.045723 0 0 1 -10.044922 10.04687 10.045723 10.045723 0 0 1 -2.630859-.36133 10 10 0 0 0 3.984375.8418 10 10 0 0 0 10-10 10 10 0 0 0 -6.855469-9.49023z" fill="#ffb751" data-original="#ffb751"></path><path id="path117258" d="m-68 121.5c-5.793062 0-10.5 4.70694-10.5 10.5s4.706938 10.5 10.5 10.5 10.5-4.70694 10.5-10.5-4.706938-10.5-10.5-10.5zm0 1c5.252622 0 9.5 4.24738 9.5 9.5s-4.247378 9.5-9.5 9.5-9.5-4.24738-9.5-9.5 4.247378-9.5 9.5-9.5zm-3.75 5c-.960575 0-1.75.78942-1.75 1.75a.5.5 0 0 0 .5.5.5.5 0 0 0 .5-.5c0-.42014.329864-.75.75-.75s.75.32986.75.75a.5.5 0 0 0 .5.5.5.5 0 0 0 .5-.5c0-.96058-.789425-1.75-1.75-1.75zm7.75 0c-.960575 0-1.75.78942-1.75 1.75a.5.5 0 0 0 .5.5.5.5 0 0 0 .5-.5c0-.42014.329864-.75.75-.75s.75.32986.75.75a.5.5 0 0 0 .5.5.5.5 0 0 0 .5-.5c0-.96058-.789425-1.75-1.75-1.75zm-.08789 5.49219c-.04603.001-.08972.01-.126953.0254-.425751.17801-.328256.46623-.373047.74804-.129838.81694-.916773 1.32076-1.667968 1.22266-.595656-.0683-1.119546-.53253-1.259766-1.11523-.139798-.49057-.826663-.49985-.96875 0-.215715.78777-.998571 1.25393-1.757813 1.0957-.683143-.12365-1.209773-.77677-1.195312-1.46875.0057-.26889-.266203-.53604-.541016-.50391-.746979.0873-.411072 1.09206-.261718 1.47461.425515 1.04752 1.61691 1.70716 2.730468 1.49219.587675-.0999 1.133898-.42061 1.509766-.88281.695452.88298 2.015445 1.17829 3.019531.67187.87297-.41283 1.470463-1.36795 1.410157-2.33789-.06442-.29488-.318109-.42764-.517579-.42187z" fill="#401510" stroke-linecap="round" stroke-linejoin="round" data-original="#401510"></path></g></g></g></svg>