<svg xmlns="http://www.w3.org/2000/svg" version="1.1" xmlns:xlink="http://www.w3.org/1999/xlink" xmlns:svgjs="http://svgjs.com/svgjs" width="512" height="512" x="0" y="0" viewBox="0 0 21 21.00069" style="enable-background:new 0 0 512 512" xml:space="preserve" class=""><g><g xmlns="http://www.w3.org/2000/svg" id="layer25" transform="translate(-41.5 -161.499)"><g id="icon-devil"><path id="path31486" d="m62 172a10 10 0 0 1 -10 10 10 10 0 0 1 -10-10 10 10 0 0 1 10-10 10 10 0 0 1 10 10z" fill="#ff5440" stroke-linecap="round" stroke-linejoin="round" data-original="#ff5440"></path><path id="path31483" d="m55.289062 162.55664a10.06538 10.06538 0 0 1 5.419922 8.90625 10.06538 10.06538 0 0 1 -10.066406 10.06641 10.06538 10.06538 0 0 1 -2.550781-.3418 10 10 0 0 0 3.908203.8125 10 10 0 0 0 10-10 10 10 0 0 0 -6.710938-9.44336z" fill="#e0230d" data-original="#e0230d"></path><path id="path31480" d="m58.623117 168.49356c4.5-2.5 1.5-6.5 1.5-6.5-1 3-3.5 3.5-3.5 3.5-.748188 1.01523.291549 3.2002 2 3z" fill="#fafafa" data-original="#fafafa"></path><path id="path31477" d="m60.558594 162.76953s.216468 3.04338-1.578125 4.18945c-.946408.6044-1.409254.76993-1.908203.97071.391211.3911.925808.63769 1.550781.56445 3.276497-1.82028 2.577711-4.43497 1.955078-5.72266-.000929-.00007-.01953-.002-.01953-.002z" fill="#d4d4d4" data-original="#d4d4d4"></path><path id="path31474" d="m44.5 168.5c-4.5-2.5-1.5-6.5-1.5-6.5 1 3 3.5 3.5 3.5 3.5.748188 1.01523-.291549 3.2002-2 3z" fill="#fafafa" data-original="#fafafa"></path><path id="path31471" d="m42.564523 162.77597s-.216468 3.04338 1.578125 4.18945c.946408.6044 1.409254.76993 1.908203.97071-.391211.3911-.925808.63769-1.550781.56445-3.276497-1.82028-2.577711-4.43497-1.955078-5.72266.000929-.00007.01953-.002.01953-.002z" fill="#d4d4d4" data-original="#d4d4d4"></path><path id="path31468" d="m57.655048 170.125c.517767.8968.210501 2.04353-.686298 2.5613s-2.043531.2105-2.561298-.6863z" fill="#fafafa" data-original="#fafafa"></path><path id="path31465" d="m46.50196 170.125c-.517767.8968-.210501 2.04353.686298 2.5613s2.043531.2105 2.561298-.6863z" fill="#fafafa" data-original="#fafafa"></path><path id="path142842" d="m52 161.5c-2.588653 0-5.078416.95941-7 2.67969-.563195-.47426-1.149117-1.20907-1.525391-2.33789-.05871-.1767-.210732-.30615-.394531-.33594-.183659-.03-.368767.0445-.480469.19336 0 0-.822379 1.08088-1.03125 2.54297-.142237.99566.04876 2.19682.939453 3.28125-.659892 1.39941-1.007813 2.9267-1.007812 4.47656 0 5.79306 4.706938 10.5 10.5 10.5s10.5-4.70694 10.5-10.5c-.000001-1.87498-.507458-3.7113-1.457031-5.32422.415033-.83649.494616-1.69198.388672-2.43359-.208871-1.46209-1.03125-2.54297-1.03125-2.54297-.111702-.14883-.29681-.22333-.480469-.19336-.183799.0298-.335822.15924-.394531.33594-.273103.8193-.657347 1.42965-1.0625 1.88476-1.842295-1.43913-4.116532-2.22656-6.462891-2.22656zm0 1c2.063767 0 4.063738.67279 5.705078 1.90625-.693421.48916-1.279294.59836-1.296875.60156-.04331-.30892-.04492-.50781-.04492-.50781 0-.27614-.223858-.5-.5-.5s-.5.22386-.5.5c0 0-.0022 1.01013.445313 2.12891.44751 1.11877 1.399468 2.40358 3.207031 2.85547.267453.0665.538251-.096.605469-.36329.05673-.22738-.05207-.46365-.261719-.56836.427518-.29732.77665-.61528 1.060547-.94531.706014 1.35319 1.080077 2.85918 1.080078 4.39258 0 5.25262-4.247378 9.5-9.5 9.5s-9.5-4.24738-9.5-9.5c-.000001-1.28398.26339-2.55169.765625-3.72852.119687.0973.246257.19176.380859.28516-.210209.10243-.321349.33688-.267578.56445.06722.26726.338016.42974.605469.36329 1.807563-.45188 2.759521-1.7367 3.207031-2.85547.44751-1.11878.445313-2.12891.445313-2.12891 0-.27614-.223858-.5-.5-.5s-.5.22386-.5.5c0 0-.0016.19889-.04492.50781-.01239-.002-.305452-.056-.722656-.25976 1.709522-1.44563 3.878136-2.24805 6.130855-2.24805zm-8.941406.64453c1.192924 2.15387 3.113587 2.77594 3.30664 2.83399-.296366.92803-.967885 1.77204-1.578125 2.10937-1.541954-.80411-2.45492-1.97438-2.230468-3.70508.09881-.69166.291804-.86085.501953-1.23828zm16.882812 0c.210149.37743.403145.54662.501953 1.23828.19386 2.02822-.837532 2.90116-2.230468 3.70508-.854496-.51634-1.270738-1.28848-1.578125-2.10937.193053-.0581 2.113716-.68012 3.30664-2.83399zm-13.492187 6.48242a.50005.50005 0 0 0 -.38086.24805c-.652875 1.13082-.261673 2.59126.869141 3.24414 1.130816.65288 2.591265.26168 3.244141-.86914a.50005.50005 0 0 0 -.181641-.68359l-3.248047-1.875a.50005.50005 0 0 0 -.302734-.0645zm11.257812 0a.50005.50005 0 0 0 -.302734.0645l-3.246094 1.875a.50005.50005 0 0 0 -.183594.68355c.652876 1.13082 2.113325 1.52202 3.244141.86914 1.130814-.65288 1.522016-2.11332.869141-3.24414a.50005.50005 0 0 0 -.38086-.24805zm-.412109 1.28321c.06194.52758-.08312 1.05908-.576172 1.34375-.492535.28436-1.025349.14468-1.451172-.17188zm-10.431641.002 2.025391 1.16797c-.425902.3172-.958261.45841-1.451172.17383-.492442-.28432-.635319-.81485-.574219-1.3418zm.05273 4.92969a.5.5 0 0 0 -.324219.20312.5.5 0 0 0 .119141.69727c1.378298.97881 3.335157 1.42383 5.289062 1.42383s3.910765-.44502 5.289062-1.42383a.5.5 0 0 0 .119141-.69727.5.5 0 0 0 -.697265-.11914c-1.1217.79659-2.914847 1.24024-4.710938 1.24024s-3.589235-.44365-4.710938-1.24024a.5.5 0 0 0 -.373046-.084z" fill="#401510" stroke-linecap="round" stroke-linejoin="round" data-original="#401510" class=""></path></g></g></g></svg>